<svg width="16" height="16" viewBox="0 0 16 16" fill="none" xmlns="http://www.w3.org/2000/svg">
    <path d="M10.5344 13.8514C10.6703 13.9476 10.8328 13.9993 10.9994 13.9994C11.1642 13.9978 11.3245 13.9454 11.4584 13.8494C11.5979 13.7509 11.7029 13.6109 11.7584 13.4494L12.0064 12.6874C12.0595 12.5289 12.1485 12.3849 12.2664 12.2664C12.3837 12.1478 12.5277 12.059 12.6864 12.0074L13.4584 11.7554C13.6161 11.7009 13.7528 11.5984 13.8494 11.4624C13.9227 11.3594 13.9706 11.2404 13.9891 11.1153C14.0076 10.9902 13.9962 10.8625 13.9558 10.7427C13.9154 10.6228 13.8472 10.5143 13.7567 10.4259C13.6662 10.3376 13.5561 10.2719 13.4354 10.2344L12.6714 9.98536C12.5132 9.93279 12.3695 9.84417 12.2514 9.72651C12.1334 9.60884 12.0444 9.46535 11.9914 9.30736L11.7394 8.53336C11.685 8.37611 11.5825 8.23999 11.4464 8.14436C11.3443 8.07141 11.2266 8.02347 11.1026 8.00441C10.9787 7.98535 10.8519 7.9957 10.7327 8.03463C10.6135 8.07356 10.5051 8.13998 10.4163 8.22853C10.3274 8.31707 10.2607 8.42526 10.2214 8.54436L9.97435 9.30636C9.92207 9.46401 9.83452 9.60765 9.71835 9.72636C9.60382 9.8426 9.46428 9.93118 9.31035 9.98536L8.53435 10.2384C8.41689 10.2792 8.31057 10.3469 8.22382 10.436C8.13708 10.5251 8.0723 10.6332 8.03464 10.7517C7.99698 10.8702 7.98746 10.9959 8.00686 11.1187C8.02625 11.2416 8.07401 11.3582 8.14635 11.4594C8.24456 11.5992 8.38462 11.7042 8.54635 11.7594L9.30935 12.0064C9.46821 12.0598 9.61262 12.1491 9.73135 12.2674C9.84958 12.3856 9.93801 12.5302 9.98935 12.6894L10.2424 13.4634C10.2971 13.6198 10.3992 13.7554 10.5344 13.8514Z" fill="url(#paint0_linear_1094_105)"/>
    <path d="M10.5344 13.8514C10.6703 13.9476 10.8328 13.9993 10.9994 13.9994C11.1642 13.9978 11.3245 13.9454 11.4584 13.8494C11.5979 13.7509 11.7029 13.6109 11.7584 13.4494L12.0064 12.6874C12.0595 12.5289 12.1485 12.3849 12.2664 12.2664C12.3837 12.1478 12.5277 12.059 12.6864 12.0074L13.4584 11.7554C13.6161 11.7009 13.7528 11.5984 13.8494 11.4624C13.9227 11.3594 13.9706 11.2404 13.9891 11.1153C14.0076 10.9902 13.9962 10.8625 13.9558 10.7427C13.9154 10.6228 13.8472 10.5143 13.7567 10.4259C13.6662 10.3376 13.5561 10.2719 13.4354 10.2344L12.6714 9.98536C12.5132 9.93279 12.3695 9.84417 12.2514 9.72651C12.1334 9.60884 12.0444 9.46535 11.9914 9.30736L11.7394 8.53336C11.685 8.37611 11.5825 8.23999 11.4464 8.14436C11.3443 8.07141 11.2266 8.02347 11.1026 8.00441C10.9787 7.98535 10.8519 7.9957 10.7327 8.03463C10.6135 8.07356 10.5051 8.13998 10.4163 8.22853C10.3274 8.31707 10.2607 8.42526 10.2214 8.54436L9.97435 9.30636C9.92207 9.46401 9.83452 9.60765 9.71835 9.72636C9.60382 9.8426 9.46428 9.93118 9.31035 9.98536L8.53435 10.2384C8.41689 10.2792 8.31057 10.3469 8.22382 10.436C8.13708 10.5251 8.0723 10.6332 8.03464 10.7517C7.99698 10.8702 7.98746 10.9959 8.00686 11.1187C8.02625 11.2416 8.07401 11.3582 8.14635 11.4594C8.24456 11.5992 8.38462 11.7042 8.54635 11.7594L9.30935 12.0064C9.46821 12.0598 9.61262 12.1491 9.73135 12.2674C9.84958 12.3856 9.93801 12.5302 9.98935 12.6894L10.2424 13.4634C10.2971 13.6198 10.3992 13.7554 10.5344 13.8514Z" fill="url(#paint1_radial_1094_105)" fill-opacity="0.5"/>
    <path d="M10.5344 13.8514C10.6703 13.9476 10.8328 13.9993 10.9994 13.9994C11.1642 13.9978 11.3245 13.9454 11.4584 13.8494C11.5979 13.7509 11.7029 13.6109 11.7584 13.4494L12.0064 12.6874C12.0595 12.5289 12.1485 12.3849 12.2664 12.2664C12.3837 12.1478 12.5277 12.059 12.6864 12.0074L13.4584 11.7554C13.6161 11.7009 13.7528 11.5984 13.8494 11.4624C13.9227 11.3594 13.9706 11.2404 13.9891 11.1153C14.0076 10.9902 13.9962 10.8625 13.9558 10.7427C13.9154 10.6228 13.8472 10.5143 13.7567 10.4259C13.6662 10.3376 13.5561 10.2719 13.4354 10.2344L12.6714 9.98536C12.5132 9.93279 12.3695 9.84417 12.2514 9.72651C12.1334 9.60884 12.0444 9.46535 11.9914 9.30736L11.7394 8.53336C11.685 8.37611 11.5825 8.23999 11.4464 8.14436C11.3443 8.07141 11.2266 8.02347 11.1026 8.00441C10.9787 7.98535 10.8519 7.9957 10.7327 8.03463C10.6135 8.07356 10.5051 8.13998 10.4163 8.22853C10.3274 8.31707 10.2607 8.42526 10.2214 8.54436L9.97435 9.30636C9.92207 9.46401 9.83452 9.60765 9.71835 9.72636C9.60382 9.8426 9.46428 9.93118 9.31035 9.98536L8.53435 10.2384C8.41689 10.2792 8.31057 10.3469 8.22382 10.436C8.13708 10.5251 8.0723 10.6332 8.03464 10.7517C7.99698 10.8702 7.98746 10.9959 8.00686 11.1187C8.02625 11.2416 8.07401 11.3582 8.14635 11.4594C8.24456 11.5992 8.38462 11.7042 8.54635 11.7594L9.30935 12.0064C9.46821 12.0598 9.61262 12.1491 9.73135 12.2674C9.84958 12.3856 9.93801 12.5302 9.98935 12.6894L10.2424 13.4634C10.2971 13.6198 10.3992 13.7554 10.5344 13.8514Z" fill="url(#paint2_radial_1094_105)"/>
    <path d="M5.46524 9.82913C5.62134 9.93988 5.80806 9.99926 5.99946 9.99899C6.19151 9.99979 6.37897 9.94033 6.53546 9.82899C6.69223 9.71329 6.81095 9.55349 6.87646 9.36999L7.22346 8.30299C7.3077 8.05142 7.44906 7.82278 7.63646 7.63499C7.82305 7.44802 8.05078 7.30727 8.30146 7.22399L9.38746 6.87099C9.56665 6.8071 9.72173 6.6894 9.83146 6.53399C9.94145 6.37859 10.0005 6.19288 10.0005 6.00249C10.0005 5.8121 9.94145 5.6264 9.83146 5.47099C9.71293 5.30564 9.54426 5.1829 9.35046 5.12099L8.28146 4.77499C8.02989 4.69189 7.80123 4.55114 7.61371 4.36398C7.4262 4.17681 7.28503 3.94841 7.20146 3.69699L6.84846 2.61299C6.78519 2.43375 6.66777 2.27859 6.51246 2.16899C6.35557 2.06084 6.16951 2.00293 5.97896 2.00293C5.78841 2.00293 5.60235 2.06084 5.44546 2.16899C5.28572 2.28147 5.16594 2.44189 5.10346 2.62699L4.74846 3.71699C4.66476 3.96106 4.52691 4.18302 4.34524 4.36625C4.16358 4.54947 3.9428 4.68921 3.69946 4.77499L2.61546 5.12599C2.43437 5.18999 2.27775 5.30889 2.16743 5.46611C2.05712 5.62334 1.99859 5.81106 2.00003 6.00313C2.00146 6.19519 2.06277 6.38202 2.17541 6.53759C2.28806 6.69315 2.44643 6.8097 2.62846 6.87099L3.69546 7.21799C3.94767 7.30248 4.17673 7.44457 4.36446 7.63299C4.41519 7.68321 4.46262 7.73666 4.50646 7.79299C4.62481 7.94566 4.71614 8.11748 4.77646 8.30099L5.12846 9.38099C5.19143 9.56174 5.30914 9.71837 5.46524 9.82913Z" fill="url(#paint3_linear_1094_105)"/>
    <path d="M5.46524 9.82913C5.62134 9.93988 5.80806 9.99926 5.99946 9.99899C6.19151 9.99979 6.37897 9.94033 6.53546 9.82899C6.69223 9.71329 6.81095 9.55349 6.87646 9.36999L7.22346 8.30299C7.3077 8.05142 7.44906 7.82278 7.63646 7.63499C7.82305 7.44802 8.05078 7.30727 8.30146 7.22399L9.38746 6.87099C9.56665 6.8071 9.72173 6.6894 9.83146 6.53399C9.94145 6.37859 10.0005 6.19288 10.0005 6.00249C10.0005 5.8121 9.94145 5.6264 9.83146 5.47099C9.71293 5.30564 9.54426 5.1829 9.35046 5.12099L8.28146 4.77499C8.02989 4.69189 7.80123 4.55114 7.61371 4.36398C7.4262 4.17681 7.28503 3.94841 7.20146 3.69699L6.84846 2.61299C6.78519 2.43375 6.66777 2.27859 6.51246 2.16899C6.35557 2.06084 6.16951 2.00293 5.97896 2.00293C5.78841 2.00293 5.60235 2.06084 5.44546 2.16899C5.28572 2.28147 5.16594 2.44189 5.10346 2.62699L4.74846 3.71699C4.66476 3.96106 4.52691 4.18302 4.34524 4.36625C4.16358 4.54947 3.9428 4.68921 3.69946 4.77499L2.61546 5.12599C2.43437 5.18999 2.27775 5.30889 2.16743 5.46611C2.05712 5.62334 1.99859 5.81106 2.00003 6.00313C2.00146 6.19519 2.06277 6.38202 2.17541 6.53759C2.28806 6.69315 2.44643 6.8097 2.62846 6.87099L3.69546 7.21799C3.94767 7.30248 4.17673 7.44457 4.36446 7.63299C4.41519 7.68321 4.46262 7.73666 4.50646 7.79299C4.62481 7.94566 4.71614 8.11748 4.77646 8.30099L5.12846 9.38099C5.19143 9.56174 5.30914 9.71837 5.46524 9.82913Z" fill="url(#paint4_radial_1094_105)" fill-opacity="0.5"/>
    <path d="M5.46524 9.82913C5.62134 9.93988 5.80806 9.99926 5.99946 9.99899C6.19151 9.99979 6.37897 9.94033 6.53546 9.82899C6.69223 9.71329 6.81095 9.55349 6.87646 9.36999L7.22346 8.30299C7.3077 8.05142 7.44906 7.82278 7.63646 7.63499C7.82305 7.44802 8.05078 7.30727 8.30146 7.22399L9.38746 6.87099C9.56665 6.8071 9.72173 6.6894 9.83146 6.53399C9.94145 6.37859 10.0005 6.19288 10.0005 6.00249C10.0005 5.8121 9.94145 5.6264 9.83146 5.47099C9.71293 5.30564 9.54426 5.1829 9.35046 5.12099L8.28146 4.77499C8.02989 4.69189 7.80123 4.55114 7.61371 4.36398C7.4262 4.17681 7.28503 3.94841 7.20146 3.69699L6.84846 2.61299C6.78519 2.43375 6.66777 2.27859 6.51246 2.16899C6.35557 2.06084 6.16951 2.00293 5.97896 2.00293C5.78841 2.00293 5.60235 2.06084 5.44546 2.16899C5.28572 2.28147 5.16594 2.44189 5.10346 2.62699L4.74846 3.71699C4.66476 3.96106 4.52691 4.18302 4.34524 4.36625C4.16358 4.54947 3.9428 4.68921 3.69946 4.77499L2.61546 5.12599C2.43437 5.18999 2.27775 5.30889 2.16743 5.46611C2.05712 5.62334 1.99859 5.81106 2.00003 6.00313C2.00146 6.19519 2.06277 6.38202 2.17541 6.53759C2.28806 6.69315 2.44643 6.8097 2.62846 6.87099L3.69546 7.21799C3.94767 7.30248 4.17673 7.44457 4.36446 7.63299C4.41519 7.68321 4.46262 7.73666 4.50646 7.79299C4.62481 7.94566 4.71614 8.11748 4.77646 8.30099L5.12846 9.38099C5.19143 9.56174 5.30914 9.71837 5.46524 9.82913Z" fill="url(#paint5_radial_1094_105)"/>
    <defs>
        <linearGradient id="paint0_linear_1094_105" x1="9.66392" y1="9.16261" x2="14.1675" y2="14.3303" gradientUnits="userSpaceOnUse">
            <stop stop-color="#A2EBFB"/>
            <stop offset="0.491596" stop-color="#2169E8"/>
            <stop offset="1" stop-color="#47CFFA"/>
        </linearGradient>
        <radialGradient id="paint1_radial_1094_105" cx="0" cy="0" r="1" gradientUnits="userSpaceOnUse" gradientTransform="translate(8.66381 13.499) rotate(-45.0171) scale(1.88639 2.85776)">
            <stop offset="0.332737" stop-color="#2169E8"/>
            <stop offset="1" stop-color="#2169E8" stop-opacity="0"/>
        </radialGradient>
        <radialGradient id="paint2_radial_1094_105" cx="0" cy="0" r="1" gradientUnits="userSpaceOnUse" gradientTransform="translate(8.49713 8.49547) rotate(47.1381) scale(6.37107 10.9427)">
            <stop offset="0.19979" stop-color="#A2EBFB"/>
            <stop offset="0.298929" stop-color="#A2EBFB" stop-opacity="0"/>
        </radialGradient>
        <linearGradient id="paint3_linear_1094_105" x1="3.57905" y1="3.37068" x2="9.47078" y2="9.47622" gradientUnits="userSpaceOnUse">
            <stop stop-color="#A2EBFB"/>
            <stop offset="0.736929" stop-color="#2169E8"/>
            <stop offset="1" stop-color="#47CFFA"/>
        </linearGradient>
        <radialGradient id="paint4_radial_1094_105" cx="0" cy="0" r="1" gradientUnits="userSpaceOnUse" gradientTransform="translate(2.31581 9.36773) rotate(-43.6519) scale(3.20081 4.84891)">
            <stop offset="0.332737" stop-color="#2169E8"/>
            <stop offset="1" stop-color="#2169E8" stop-opacity="0"/>
        </radialGradient>
        <radialGradient id="paint5_radial_1094_105" cx="0" cy="0" r="1" gradientUnits="userSpaceOnUse" gradientTransform="translate(3.36851 3.26547) rotate(44.9841) scale(7.14398 12.2707)">
            <stop offset="0.19979" stop-color="#A2EBFB"/>
            <stop offset="0.298929" stop-color="#A2EBFB" stop-opacity="0"/>
        </radialGradient>
    </defs>
</svg>
